#!OML:ASF E:\emotionWalksFemale\Project 1\Capture day 1\Session 1\Female1.ASF
:FULLY-SPECIFIED
:DEGREES
736
root 9.7473 15.2224 23.0392 -3.05239 4.65639 3.86646
lowerback 6.62805 -0.292456 -4.39729
upperback -3.49064 -0.870036 -0.719506
thorax -7.34361 -0.230083 1.82475
lowerneck -5.56875 -2.30989 -6.39814
upperneck 7.75282 -3.06096 6.1417
head 3.40801 -1.44031 2.76524
rclavicle -1.70458e-014 7.05686e-015
rhumerus -47.0033 3.94337 -84.8402
rradius 30.574
rwrist 17.4479
rhand 1.1949 -53.0462
rfingers 7.12502
rthumb 26.7344 -81.1774
lclavicle -1.70458e-014 7.05686e-015
lhumerus -30.9605 -8.50412 87.8367
lradius 44.818
lwrist -4.96877
lhand -9.28502 -33.889
lfingers 7.12502
lthumb 16.6721 -4.58495
rfemur -24.9161 24.8641 12.5512
rtibia 21.075
rfoot -27.0273 -42.7308
rtoes 13.0835
lfemur 16.5908 -14.2859 -35.1767
ltibia 11.9913
lfoot -19.1555 14.4937
ltoes -16.9438
737
root 9.73133 15.2022 23.1902 -2.94814 4.91558 3.98918
lowerback 6.59376 -0.300956 -4.68525
upperback -3.56282 -0.908495 -0.698841
thorax -7.39623 -0.231848 2.01264
lowerneck -6.06161 -2.36757 -5.9666
upperneck 8.4024 -3.11157 5.4435
head 3.672 -1.4755 2.4732
rclavicle 3.6154e-015 1.56046e-014
rhumerus -47.1354 3.84197 -84.6886
rradius 30.6294
rwrist 17.5657
rhand 1.56675 -53.4771
rfingers 7.12502
rthumb 27.0902 -81.5534
lclavicle 3.6154e-015 1.56046e-014
lhumerus -31.4364 -8.10683 88.0856
lradius 45.2327
lwrist -5.02406
lhand -9.39353 -34.1734
lfingers 7.12502
lthumb 16.5676 -4.86066
rfemur -25.231 28.0738 11.2546
rtibia 20.4777
rfoot -30.3505 -44.4403
rtoes 17.7446
lfemur 17.0217 -13.9302 -35.1382
ltibia 12.1805
lfoot -18.8223 14.1106
ltoes -20.1548
738
root 9.71117 15.1912 23.3428 -2.86642 5.20363 3.89778
lowerback 6.44333 -0.334015 -4.73372
upperback -3.55035 -0.946695 -0.680877
thorax -7.29217 -0.250331 2.06156
lowerneck -5.78376 -2.47055 -6.19562
upperneck 7.99651 -3.25928 5.76529
head 3.52078 -1.54531 2.60435
rclavicle -3.26752e-015 1.41137e-014
rhumerus -47.0887 3.79167 -84.6931
rradius 30.5732
rwrist 17.4718
rhand 1.68239 -53.8453
rfingers 7.12502
rthumb 27.2008 -81.9045
lclavicle -3.26752e-015 1.41137e-014
lhumerus -31.8731 -7.81858 88.1969
lradius 45.7745
lwrist -5.05532
lhand -9.30712 -34.4764
lfingers 7.12502
lthumb 16.6508 -5.17057
rfemur -25.566 31.2467 10.21
rtibia 20.0425
rfoot -34.4578 -45.7379
rtoes 22.4502
lfemur 17.2886 -13.9753 -34.8687
ltibia 12.5292
lfoot -18.9187 13.0593
ltoes -16.0299
739
root 9.69167 15.1786 23.4964 -2.7176 5.45308 3.66335
lowerback 6.28201 -0.370623 -4.60583
upperback -3.6389 -0.972676 -0.617819
thorax -7.29161 -0.266306 2.05767
lowerneck -5.60567 -2.51779 -6.12357
upperneck 7.57397 -3.29483 5.43118
head 3.72899 -1.59516 2.7634
rclavicle -3.46631e-015 4.57205e-015
rhumerus -47.1647 3.80222 -84.6819
rradius 30.4955
rwrist 17.5765
rhand 1.19065 -53.2414
rfingers 7.12502
rthumb 26.7303 -81.3732
lclavicle -3.46631e-015 4.57205e-015
lhumerus -32.2314 -7.67117 88.3588
lradius 45.9361
lwrist -4.918
lhand -8.97686 -34.5806
lfingers 7.12502
lthumb 16.9687 -5.30181
rfemur -25.8131 33.7193 9.57404
rtibia 19.6058
rfoot -37.3557 -46.7794
rtoes 25.2952
lfemur 17.3662 -13.9094 -34.4231
ltibia 13.1704
lfoot -19.04 12.1371
ltoes -13.6295
740
root 9.67252 15.1667 23.6476 -2.54409 5.708 3.57952
lowerback 6.18326 -0.402898 -4.64949
upperback -3.73554 -1.01365 -0.562761
thorax -7.33372 -0.280214 2.14419
lowerneck -5.46606 -2.57231 -6.21148
upperneck 7.47991 -3.36509 5.43232
head 3.67614 -1.63416 2.77596
rclavicle 3.39176e-015 -9.54166e-015
rhumerus -47.1843 3.87174 -84.6219
rradius 30.3888
rwrist 17.8545
rhand 1.04123 -52.6162
rfingers 7.12502
rthumb 26.5873 -80.7698
lclavicle 3.39176e-015 -9.54166e-015
lhumerus -32.5533 -7.43738 88.6161
lradius 45.9007
lwrist -4.71006
lhand -8.95203 -34.5033
lfingers 7.12502
lthumb 16.9926 -5.22661
rfemur -25.8077 35.1453 9.20821
rtibia 19.1662
rfoot -38.6806 -47.4048
rtoes 26.5272
lfemur 17.2947 -13.7071 -34.0757
ltibia 13.9745
lfoot -19.1786 11.0157
ltoes -10.6616
741
root 9.65109 15.1581 23.7994 -2.37917 5.9641 3.56192
lowerback 6.04373 -0.437177 -4.74117
upperback -3.79127 -1.06047 -0.545541
thorax -7.30793 -0.297859 2.2176
lowerneck -5.34143 -2.65753 -6.41459
upperneck 7.37651 -3.47852 5.58188
head 3.6347 -1.692 2.86008
rclavicle -6.12505e-015 -6.21202e-015
rhumerus -47.0979 3.92308 -84.6203
rradius 30.302
rwrist 17.958
rhand 1.29814 -52.7973
rfingers 7.12502
rthumb 26.8332 -80.9135
lclavicle -6.12505e-015 -6.21202e-015
lhumerus -32.9855 -7.17458 88.8078
lradius 46.0235
lwrist -4.5229
lhand -9.132 -34.6162
lfingers 7.12502
lthumb 16.8194 -5.32461
rfemur -25.4823 35.2254 9.38612
rtibia 18.8785
rfoot -38.3054 -47.2404
rtoes 26.3956
lfemur 17.2429 -13.2049 -33.702
ltibia 14.7361
lfoot -18.8282 10.3216
ltoes -11.9355
742
root 9.62985 15.1542 23.9537 -2.20924 6.23355 3.5934
lowerback 5.9682 -0.494773 -4.83174
upperback -3.94884 -1.14748 -0.557324
thorax -7.42613 -0.330805 2.26619
lowerneck -5.42097 -2.66099 -6.36608
upperneck 7.73316 -3.48063 5.42011
head 3.76892 -1.69812 2.79742
rclavicle 1.85491e-014 -3.08116e-015
rhumerus -47.2442 4.08771 -84.7787
rradius 30.3316
rwrist 17.7553
rhand 1.07359 -53.2047
rfingers 7.12502
rthumb 26.6183 -81.3536
lclavicle 1.85491e-014 -3.08116e-015
lhumerus -33.6314 -6.8737 88.9049
lradius 46.1776
lwrist -4.41782
lhand -9.2277 -34.782
lfingers 7.12502
lthumb 16.7272 -5.48262
rfemur -24.7623 33.8607 10.1493
rtibia 18.6824
rfoot -35.5916 -46.3652
rtoes 24.6723
lfemur 17.2053 -12.5181 -33.3263
ltibia 15.5395
lfoot -18.1632 10.1118
ltoes -18.0918
743
root 9.60828 15.1503 24.1116 -2.07783 6.56967 3.75005
lowerback 5.93464 -0.581145 -5.11177
upperback -4.12434 -1.29335 -0.560577
thorax -7.58111 -0.380846 2.43787
lowerneck -5.11464 -2.66624 -6.78197
upperneck 8.04938 -3.53118 5.97953
head 3.45652 -1.69883 2.75879
rclavicle -1.96176e-014 3.926e-015
rhumerus -47.4495 4.38252 -84.9451
rradius 30.2863
rwrist 17.5642
rhand 0.590992 -53.2459
rfingers 7.12502
rthumb 26.1563 -81.464
lclavicle -1.96176e-014 3.926e-015
lhumerus -34.3038 -6.44125 88.9997
lradius 46.2057
lwrist -4.385
lhand -9.26144 -34.8544
lfingers 7.12502
lthumb 16.6948 -5.55225
rfemur -24.0214 32.3059 10.8872
rtibia 18.8261
rfoot -32.2886 -45.3687
rtoes 22.2121
lfemur 17.3327 -12.0798 -33.1081
ltibia 16.0909
lfoot -17.5563 9.68195
ltoes -20.0127
744
root 9.58598 15.1385 24.2758 -2.10473 6.86266 3.76189
lowerback 5.80412 -0.615727 -5.24576
upperback -4.14267 -1.34391 -0.557795
thorax -7.51899 -0.399865 2.51955
lowerneck -5.00206 -2.72663 -6.96652
upperneck 8.01014 -3.61557 6.12494
head 3.43741 -1.74178 2.83055
rclavicle -1.36292e-014 9.14409e-015
rhumerus -47.4221 4.45189 -84.9744
rradius 30.1052
rwrist 17.5425
rhand 0.389122 -53.1249
rfingers 7.12502
rthumb 25.963 -81.3716
lclavicle -1.36292e-014 9.14409e-015
lhumerus -34.8902 -6.0387 89.0839
lradius 46.1615
lwrist -4.41362
lhand -9.21628 -34.895
lfingers 7.12502
lthumb 16.7382 -5.59653
rfemur -23.1843 31.2446 11.7171
rtibia 18.9924
rfoot -29.626 -44.4891
rtoes 19.9665
lfemur 17.6246 -11.6189 -32.7522
ltibia 16.6887
lfoot -16.9927 8.91242
ltoes -19.277
745
root 9.56367 15.1472 24.4431 -2.2166 7.01262 3.57009
lowerback 5.74292 -0.506631 -5.03533
upperback -4.11704 -1.18076 -0.663121
thorax -7.47346 -0.335596 2.27012
lowerneck -5.18102 -2.88922 -6.67097
upperneck 8.19364 -3.84323 5.98523
head 3.52938 -1.84867 2.72534
rclavicle -2.04919e-014 7.20594e-016
rhumerus -47.394 3.96874 -84.9691
rradius 29.9992
rwrist 17.7522
rhand 0.503776 -53.124
rfingers 7.12502
rthumb 26.0728 -81.3545
lclavicle -2.04919e-014 7.20594e-016
lhumerus -35.4207 -6.05092 89.1116
lradius 46.0311
lwrist -4.57864
lhand -9.12045 -34.9464
lfingers 7.12502
lthumb 16.8305 -5.65578
rfemur -22.0615 29.1875 13.2652
rtibia 19.1556
rfoot -25.855 -43.399
rtoes 15.56
lfemur 17.9884 -10.6783 -32.1024
ltibia 17.4216
lfoot -15.9975 8.58516
ltoes -25.8758
746
root 9.53961 15.1558 24.613 -2.18095 7.13513 3.31949
lowerback 5.5899 -0.59887 -4.941
upperback -4.3821 -1.28014 -0.441144
thorax -7.65836 -0.373437 2.4621
lowerneck -4.49952 -2.8066 -7.15037
upperneck 8.17033 -3.73289 5.96921
head 3.41104 -1.82042 2.81276
rclavicle 1.24613e-014 4.96962e-017
rhumerus -47.8617 4.57579 -85.0058
rradius 30.1105
rwrist 17.7986
rhand 0.691877 -53.3176
rfingers 7.12502
rthumb 26.2529 -81.5215
lclavicle 1.24613e-014 4.96962e-017
lhumerus -36.4 -5.27993 89.2825
lradius 45.7533
lwrist -4.76829
lhand -9.05483 -35.0493
lfingers 7.12502
lthumb 16.8937 -5.76409
rfemur -21.6485 29.1309 13.9635
rtibia 19.221
rfoot -24.8767 -43.565
rtoes 15.7547
lfemur 17.8538 -10.5083 -31.4671
ltibia 18.3771
lfoot -15.7112 6.89547
ltoes -17.9025
747
root 9.51435 15.1668 24.7826 -2.08646 7.30466 3.00761
lowerback 5.33676 -0.451143 -4.53801
upperback -4.29618 -1.04026 -0.616303
thorax -7.44356 -0.289257 2.01919
lowerneck -4.96677 -3.12548 -6.85733
upperneck 8.17278 -4.17318 6.14731
head 3.51615 -2.01426 2.791
rclavicle 7.04443e-015 -1.01132e-014
rhumerus -47.5529 4.06185 -85.205
rradius 30.0391
rwrist 17.8195
rhand 1.21183 -53.7786
rfingers 7.12502
rthumb 26.7506 -81.9074
lclavicle 7.04443e-015 -1.01132e-014
lhumerus -36.4932 -5.86127 89.1826
lradius 45.3662
lwrist -4.51079
lhand -8.98549 -34.954
lfingers 7.12502
lthumb 16.9604 -5.67446
rfemur -21.5281 30.3377 14.2625
rtibia 19.3332
rfoot -25.1538 -44.5039
rtoes 17.74
lfemur 17.6689 -9.92292 -30.6493
ltibia 19.4271
lfoot -14.7692 6.09462
ltoes -21.3931
748
root 9.48939 15.1793 24.9498 -2.18559 7.46939 2.62644
lowerback 5.29434 -0.461603 -4.21947
upperback -4.37884 -1.02187 -0.545778
thorax -7.51043 -0.292256 1.91263
lowerneck -4.98009 -3.15063 -6.66714
upperneck 8.43901 -4.20733 5.8737
head 3.5914 -2.03696 2.67352
rclavicle -1.00883e-014 -2.23633e-015
rhumerus -47.584 4.3867 -85.4927
rradius 29.9054
rwrist 17.6683
rhand 1.54661 -54.0217
rfingers 7.12502
rthumb 27.0709 -82.1011
lclavicle -1.00883e-014 -2.23633e-015
lhumerus -37.2686 -5.53066 89.1497
lradius 45.1266
lwrist -4.5709
lhand -9.00021 -34.906
lfingers 7.12502
lthumb 16.9462 -5.62527
rfemur -21.0252 31.4979 14.77
rtibia 19.1976
rfoot -24.7716 -45.3204
rtoes 19.1671
lfemur 17.4947 -9.13486 -29.7137
ltibia 20.8399
lfoot -13.6818 5.44883
ltoes -26.5388
749
root 9.46744 15.1936 25.1191 -2.40059 7.56848 2.281
lowerback 5.35987 -0.444453 -3.9782
upperback -4.41069 -0.973194 -0.417161
thorax -7.58583 -0.275318 1.90819
lowerneck -4.6022 -3.15655 -7.22463
upperneck 8.20358 -4.23196 6.39485
head 3.48162 -2.05035 2.9288
rclavicle 1.35857e-014 1.35671e-014
rhumerus -47.5405 4.65589 -85.6073
rradius 29.7112
rwrist 17.7799
rhand 0.761461 -53.4638
rfingers 7.12502
rthumb 26.3195 -81.6577
lclavicle 1.35857e-014 1.35671e-014
lhumerus -37.8623 -5.07068 89.194
lradius 44.5448
lwrist -4.80817
lhand -9.0681 -34.8048
lfingers 7.12502
lthumb 16.8809 -5.51849
rfemur -19.9226 31.1679 15.8663
rtibia 19.0536
rfoot -23.0346 -44.6707
rtoes 19.1073
lfemur 17.2192 -8.30062 -28.7828
ltibia 22.4468
lfoot -12.3802 4.38806
ltoes -27.0993
